<svg width="1024" height="1024" viewBox="0 0 1024 1024" fill="none" xmlns="http://www.w3.org/2000/svg">
<path fill-rule="evenodd" clip-rule="evenodd" d="M1024 318.915C1024 306.759 1024 294.601 1023.93 282.444C1023.87 272.203 1023.75 261.964 1023.47 251.728C1022.87 229.417 1021.56 206.916 1017.59 184.854C1013.56 162.474 1006.99 141.645 996.637 121.31C986.456 101.323 973.158 83.0344 957.291 67.1786C941.428 51.3228 923.134 38.0333 903.14 27.8592C882.785 17.5011 861.933 10.9322 839.528 6.90949C817.464 2.94772 794.956 1.63417 772.646 1.03145C762.402 0.754327 752.158 0.637512 741.912 0.574134C729.749 0.499571 717.585 0.505785 705.421 0.505785L564.19 0H458.56L319.827 0.505785C307.64 0.505785 295.453 0.499571 283.266 0.574134C272.998 0.637512 262.736 0.754327 252.473 1.03145C230.11 1.63417 207.551 2.94896 185.435 6.9157C163 10.9371 142.117 17.5036 121.735 27.8542C101.698 38.0295 83.3647 51.3204 67.4679 67.1786C51.5737 83.0332 38.2506 101.318 28.0517 121.301C17.6676 141.646 11.0837 162.487 7.04989 184.88C3.07819 206.933 1.76216 229.427 1.15696 251.728C0.881081 261.965 0.761781 272.204 0.699645 282.444C0.625083 294.603 0 309.705 0 321.863L0.00372813 458.673L0 565.435L0.631296 705.152C0.631296 717.326 0.626325 729.499 0.699645 741.673C0.761781 751.928 0.881081 762.18 1.15821 772.431C1.76216 794.77 3.08068 817.304 7.0561 839.396C11.0887 861.806 17.6713 882.665 28.0467 903.026C38.2469 923.041 51.5724 941.353 67.4679 957.232C83.3634 973.11 101.692 986.417 121.725 996.606C142.12 1006.98 163.012 1013.55 185.461 1017.58C207.567 1021.55 230.119 1022.87 252.473 1023.47C262.736 1023.75 273 1023.86 283.267 1023.93C295.454 1024 307.64 1024 319.827 1024L459.814 1024H565.706L705.421 1024C717.585 1024 729.749 1024 741.912 1023.93C752.158 1023.86 762.402 1023.75 772.646 1023.47C794.965 1022.87 817.48 1021.55 839.554 1017.58C861.946 1013.55 882.787 1006.97 903.132 996.609C923.129 986.422 941.427 973.112 957.291 957.232C973.156 941.356 986.453 923.046 996.633 903.034C1006.99 882.664 1013.57 861.795 1017.59 839.37C1021.56 817.287 1022.87 794.762 1023.47 772.431C1023.75 762.179 1023.87 751.926 1023.93 741.673C1024.01 729.499 1024 717.326 1024 705.152C1024 705.152 1023.99 567.902 1023.99 565.435V458.561C1023.99 456.74 1024 318.915 1024 318.915" fill="#0D0F12"/>
<path fill-rule="evenodd" clip-rule="evenodd" d="M511.965 340.954H332.301C259.813 340.954 201.076 278.306 201.007 201.007H380.672C453.229 201.007 511.965 263.655 511.965 340.954ZM332.37 356.504H512.035C512.035 433.803 453.263 496.45 380.741 496.45H201.076C201.076 419.151 259.813 356.504 332.37 356.504ZM822.992 356.504H643.328C570.771 356.504 512.034 419.151 512.034 496.45H691.699C764.256 496.45 822.992 433.803 822.992 356.504ZM822.924 340.954H643.259C570.806 340.954 512.035 278.306 511.965 201.007H691.63C764.187 201.007 822.924 263.655 822.924 340.954ZM512.035 683.046H332.37C259.813 683.046 201.076 745.694 201.076 822.993H380.741C453.263 822.993 512.035 760.345 512.035 683.046ZM511.965 667.496H332.301C259.813 667.496 201.076 604.848 201.007 527.55H380.672C453.229 527.55 511.965 590.197 511.965 667.496ZM822.992 683.046H643.328C570.771 683.046 512.034 745.694 512.034 822.993H691.699C764.256 822.993 822.992 760.345 822.992 683.046ZM822.924 667.496H643.259C570.806 667.496 512.035 604.848 511.965 527.55H691.63C764.187 527.55 822.924 590.197 822.924 667.496Z" fill="url(#paint0_linear_118_507)"/>
<defs>
<linearGradient id="paint0_linear_118_507" x1="201.007" y1="162.133" x2="822.992" y2="822.993" gradientUnits="userSpaceOnUse">
<stop stop-color="#F2E6CF"/>
<stop offset="1" stop-color="#B5884A"/>
</linearGradient>
</defs>
</svg>
