<svg width="1024" height="1024" viewBox="0 0 1024 1024" fill="none" xmlns="http://www.w3.org/2000/svg">
<rect width="1024" height="1024" fill="#0D0F12"/>
<path fill-rule="evenodd" clip-rule="evenodd" d="M511.965 340.954H332.301C259.813 340.954 201.076 278.307 201.007 201.008H380.672C453.229 201.008 511.965 263.655 511.965 340.954ZM332.37 356.504H512.035C512.035 433.803 453.263 496.451 380.741 496.451H201.076C201.076 419.152 259.813 356.504 332.37 356.504ZM822.992 356.504H643.328C570.771 356.504 512.034 419.152 512.034 496.451H691.699C764.256 496.451 822.992 433.803 822.992 356.504ZM822.924 340.954H643.259C570.806 340.954 512.035 278.307 511.965 201.008H691.63C764.187 201.008 822.924 263.655 822.924 340.954ZM512.035 683.046H332.37C259.813 683.046 201.076 745.694 201.076 822.993H380.741C453.263 822.993 512.035 760.345 512.035 683.046ZM511.965 667.496H332.301C259.813 667.496 201.076 604.849 201.007 527.55H380.672C453.229 527.55 511.965 590.197 511.965 667.496ZM822.992 683.046H643.328C570.771 683.046 512.034 745.694 512.034 822.993H691.699C764.256 822.993 822.992 760.345 822.992 683.046ZM822.924 667.496H643.259C570.806 667.496 512.035 604.849 511.965 527.55H691.63C764.187 527.55 822.924 590.197 822.924 667.496Z" fill="url(#paint0_linear_121_991)"/>
<defs>
<linearGradient id="paint0_linear_121_991" x1="201.007" y1="162.134" x2="822.992" y2="822.993" gradientUnits="userSpaceOnUse">
<stop stop-color="#F2E6CF"/>
<stop offset="1" stop-color="#B5884A"/>
</linearGradient>
</defs>
</svg>
