<svg width="1180" height="150" viewBox="0 0 1180 150" fill="none" xmlns="http://www.w3.org/2000/svg">
<path fill-rule="evenodd" clip-rule="evenodd" d="M114.995 56.45H91.3092C81.7527 56.45 74.0091 48.1908 74 38H97.6863C107.252 38 114.995 46.2592 114.995 56.45ZM91.3183 58.5H115.005C115.005 68.6908 107.256 76.95 97.6954 76.95H74.0091C74.0091 66.7592 81.7527 58.5 91.3183 58.5ZM156 58.5H132.314C122.748 58.5 115.005 66.7592 115.005 76.95H138.691C148.256 76.95 156 68.6908 156 58.5ZM155.991 56.45H132.305C122.753 56.45 115.005 48.1908 114.995 38H138.682C148.247 38 155.991 46.2592 155.991 56.45ZM115.005 101.55H91.3183C81.7527 101.55 74.0091 109.809 74.0091 120H97.6954C107.256 120 115.005 111.741 115.005 101.55ZM114.995 99.5H91.3092C81.7527 99.5 74.0091 91.2408 74 81.05H97.6863C107.252 81.05 114.995 89.3092 114.995 99.5ZM156 101.55H132.314C122.748 101.55 115.005 109.809 115.005 120H138.691C148.256 120 156 111.741 156 101.55ZM155.991 99.5H132.305C122.753 99.5 115.005 91.2408 114.995 81.05H138.682C148.247 81.05 155.991 89.3092 155.991 99.5Z" fill="url(#paint0_linear_121_1070)"/>
<path fill-rule="evenodd" clip-rule="evenodd" d="M255.448 119.832H266.684V30L255.448 33.1984V119.832ZM507.823 78.3549C506.398 75.0639 504.33 72.0917 501.738 69.6135C499.065 67.0754 495.926 65.0776 492.495 63.7301C488.783 62.2747 484.826 61.5491 480.839 61.5928C476.806 61.5467 472.808 62.3401 469.099 63.9226C465.619 65.4122 462.473 67.5839 459.846 70.3095C457.224 73.0588 455.156 76.2882 453.757 79.8208C452.283 83.5279 451.539 87.4849 451.565 91.4743C451.537 95.2145 452.255 98.9229 453.677 102.382C455.099 105.842 457.196 108.983 459.846 111.622C462.504 114.241 465.647 116.317 469.099 117.733C472.825 119.27 476.823 120.041 480.854 119.998C484.865 120.038 488.837 119.206 492.495 117.56C495.979 115.98 499.116 113.726 501.723 110.926C504.355 108.069 506.42 104.738 507.808 101.109C509.282 97.2885 510.026 93.2249 509.999 89.1297C510.03 85.4259 509.289 81.7562 507.823 78.3549ZM496.596 102.945C495.945 105.313 494.923 107.562 493.566 109.608C492.355 111.445 490.769 113.004 488.912 114.184C487.134 115.313 485.067 115.904 482.961 115.887C480.095 115.942 477.279 115.139 474.873 113.582C472.428 111.94 470.377 109.777 468.867 107.249C467.133 104.341 465.873 101.176 465.136 97.8711C464.267 94.0885 463.843 90.2172 463.873 86.3361C463.856 83.6303 464.257 80.938 465.062 78.3549C465.775 76.0215 466.844 73.8121 468.23 71.805C469.439 70.0398 470.994 68.5386 472.8 67.3924C474.394 66.3537 476.252 65.7921 478.154 65.7735C481.727 65.7735 484.757 66.532 487.244 68.0489C489.753 69.5837 491.837 71.7238 493.304 74.2729C494.944 77.1468 496.079 80.2803 496.66 83.5375C497.365 87.2967 497.708 91.1146 497.687 94.9392C497.698 97.6457 497.331 100.34 496.596 102.945ZM387.561 61.5909L369.914 84.1328L354.966 61.5909H341.845L362.823 93.1851L341.845 119.982H347.91L365.616 97.3953L365.636 97.42L393.532 61.5909H387.561ZM372.352 107.558L380.559 119.982H393.557L379.379 98.4861L372.352 107.558ZM327.05 102.798C325.737 104.482 324.18 105.961 322.431 107.186C320.57 108.493 318.535 109.535 316.386 110.281C314.155 111.07 311.804 111.469 309.438 111.46C306.669 111.49 303.939 110.81 301.508 109.486C299.078 108.103 296.955 106.239 295.27 104.007C293.607 101.9 292.117 99.4416 290.661 94.2195C289.672 90.4276 289.352 86.4926 289.713 82.5907C289.906 80.2857 290.631 76.5987 292.205 73.7063C294.179 70.0735 296.311 67.9709 298.28 66.8554C300.116 65.8139 301.414 65.73 303.092 65.73C305.03 65.7168 306.949 66.1085 308.727 66.8801C312.233 68.3915 314.996 71.2315 316.411 74.7774C317.171 76.6585 317.554 78.6712 317.536 80.7003H300.831V85.2265H331.482C331.489 82.1531 330.865 79.1109 329.651 76.2877C328.447 73.4628 326.7 70.902 324.509 68.7507C322.233 66.5265 319.553 64.7575 316.613 63.5385C313.425 62.217 310.002 61.5555 306.551 61.5938C302.658 61.5365 298.8 62.3423 295.255 63.9531C291.933 65.4837 288.977 67.7068 286.585 70.4733C284.104 73.3815 282.209 76.7419 281.003 80.3696C279.657 84.3887 278.99 88.604 279.029 92.8424C279.009 96.4736 279.745 100.069 281.191 103.4C282.578 106.628 284.573 109.559 287.068 112.033C289.582 114.506 292.543 116.479 295.793 117.847C299.175 119.273 302.812 119.992 306.482 119.96C309.405 119.952 312.302 119.394 315.019 118.316C317.824 117.221 320.451 115.714 322.811 113.844C325.207 111.957 327.316 109.732 329.074 107.24C330.832 104.783 332.148 102.036 332.962 99.1257H329.133C328.589 100.429 327.89 101.662 327.05 102.798ZM229.773 80.4072C231.95 81.4381 233.925 82.8531 235.603 84.5847C237.223 86.2924 238.489 88.3046 239.33 90.5052C240.225 92.873 240.67 95.3879 240.643 97.9199C240.668 100.89 240.009 103.826 238.716 106.498C237.39 109.2 235.486 111.576 233.139 113.456C230.54 115.531 227.585 117.114 224.419 118.126C220.724 119.308 216.864 119.885 212.986 119.834H176V75.3252H206.283C208.699 75.3659 211.103 74.9735 213.381 74.1665C215.335 73.4685 217.126 72.3772 218.644 70.9597C220.077 69.594 221.189 67.9257 221.899 66.0759C222.647 64.1187 223.022 62.0379 223.004 59.9419C223.032 57.7261 222.584 55.5302 221.691 53.503C220.774 51.5213 219.363 49.8097 217.594 48.5327C215.474 47.0234 213.08 45.9444 210.547 45.3565C207.781 44.6993 204.953 44.3449 202.111 44.2994V44.2588H176V38.8871H207.906C211.825 38.8489 215.733 39.3308 219.526 40.3202C222.763 41.1476 225.836 42.5225 228.612 44.3858C231.019 46.0105 233.03 48.1595 234.493 50.6723C235.891 53.1238 236.613 55.9037 236.587 58.7273C236.613 60.7407 236.392 62.7498 235.928 64.7088C235.487 66.4677 234.696 68.1188 233.6 69.5622C232.34 71.1858 230.838 72.6066 229.149 73.7752C226.921 75.3177 224.573 76.6773 222.127 77.8408V78.0848C224.776 78.4758 227.353 79.2584 229.773 80.4072ZM220.951 109.019C222.716 107.755 224.134 106.065 225.073 104.105C225.977 102.135 226.433 99.987 226.406 97.8183C226.428 95.3863 226.023 92.9694 225.21 90.678C224.411 88.4727 223.064 86.5083 221.295 84.9709C219.22 83.2175 216.803 81.9176 214.197 81.1543C211.267 80.2192 207.672 79.7517 203.414 79.7517H187.838V113.339H203.829C207.22 113.394 210.604 113.015 213.898 112.211C216.428 111.599 218.82 110.516 220.951 109.019ZM411.021 119.718C414.125 119.718 416.642 117.203 416.642 114.101C416.642 110.999 414.125 108.484 411.021 108.484C407.917 108.484 405.4 110.999 405.4 114.101C405.4 117.203 407.917 119.718 411.021 119.718ZM428.485 53.337L439.721 50.0448V38.8849L428.485 42.1821V53.337ZM428.485 119.734H439.721V62.1227L428.485 65.3261V119.734Z" fill="#0D0F12"/>
<rect x="574" y="25" width="4" height="100" fill="#DBDDE1"/>
<path d="M791.811 88.1764V88.0318C791.811 80.2351 787.644 76.3419 780.863 73.7705C785.03 71.4573 788.551 67.8119 788.551 61.2647V61.0995C788.551 51.9809 781.197 46.0946 769.238 46.0946H742.072V104.111H769.905C783.113 104.09 791.811 98.782 791.811 88.1764ZM775.759 63.392C775.759 67.7086 772.165 69.5261 766.478 69.5261H754.572V57.2579H767.28C772.707 57.2579 775.717 59.4162 775.717 63.2268L775.759 63.392ZM779.019 86.5964C779.019 90.913 775.592 92.8957 769.905 92.8957H754.572V80.1318H769.488C776.092 80.1318 779.019 82.5379 779.019 86.4311V86.5964ZM818.811 104.09V46.074H805.936V104.09H818.811ZM888.009 104.09V46.074H875.301V81.8357L847.884 46.1153H836.009V104.131H848.717V67.2026L877.061 104.09H888.009ZM959.322 104.09L934.238 45.6919H922.374L897.28 104.09H910.405L915.759 91.0782H940.509L945.863 104.09H959.322ZM935.915 79.7704H920.363L928.134 60.9652L935.915 79.7704ZM1020.69 104.059V46.074H1007.98V81.8357L980.613 46.074H968.738V104.09H981.447V67.2026L1009.78 104.09L1020.69 104.059ZM1087.14 94.6926L1078.96 86.4311C1074.35 90.5619 1070.26 93.2262 1063.57 93.2262C1053.54 93.2262 1046.6 84.9647 1046.6 74.9994V74.8341C1046.6 64.8894 1053.71 56.7622 1063.57 56.7622C1069.43 56.7622 1073.99 59.251 1078.54 63.3094L1086.73 53.943C1081.29 48.6454 1074.69 45 1063.65 45C1045.69 45 1033.14 58.5074 1033.14 74.9994V75.1646C1033.14 91.8217 1045.94 104.999 1063.15 104.999C1074.44 105.081 1081.12 101.106 1087.14 94.7236V94.6926ZM1142.07 104.09V92.7305H1110.3V80.5449H1137.9V69.1854H1110.3V57.4335H1141.65V46.074H1097.52V104.09H1142.07Z" fill="#EBB42B"/>
<path d="M637.297 86.2969L648.594 75L637.297 63.7109L626 75L637.297 86.2969Z" fill="#EBB42B"/>
<path d="M695.401 66.9375L676.036 47.5859L656.67 66.9375L645.365 55.6484L676.036 25L706.706 55.6484L695.401 66.9375Z" fill="#EBB42B"/>
<path d="M703.477 75L714.774 63.7109L726.072 75L714.774 86.2969L703.477 75Z" fill="#EBB42B"/>
<path d="M656.67 83.0703L676.036 102.422L695.401 83.0703L706.706 94.3594L676.036 125L645.365 94.3594L656.67 83.0703Z" fill="#EBB42B"/>
<path d="M687.333 75L676.036 86.2969L664.739 75L676.036 63.7109L687.333 75Z" fill="#EBB42B"/>
<defs>
<linearGradient id="paint0_linear_121_1070" x1="74" y1="32.875" x2="156" y2="120" gradientUnits="userSpaceOnUse">
<stop stop-color="#F2E6CF"/>
<stop offset="1" stop-color="#B5884A"/>
</linearGradient>
</defs>
</svg>
