<svg width="780" height="300" viewBox="0 0 780 300" fill="none" xmlns="http://www.w3.org/2000/svg">
<path fill-rule="evenodd" clip-rule="evenodd" d="M132.656 223.278H140.016V164.612L132.656 166.701V223.278ZM297.954 196.191C297.021 194.042 295.666 192.101 293.969 190.482C292.218 188.825 290.162 187.52 287.915 186.64C285.484 185.69 282.892 185.216 280.281 185.244C277.639 185.214 275.021 185.732 272.591 186.766C270.312 187.739 268.251 189.157 266.531 190.937C264.813 192.732 263.459 194.841 262.542 197.148C261.577 199.569 261.09 202.153 261.107 204.759C261.089 207.201 261.559 209.623 262.49 211.882C263.421 214.142 264.795 216.193 266.531 217.917C268.272 219.627 270.33 220.982 272.591 221.907C275.032 222.911 277.65 223.415 280.29 223.387C282.917 223.413 285.519 222.869 287.915 221.794C290.197 220.763 292.251 219.29 293.959 217.462C295.683 215.596 297.036 213.421 297.944 211.051C298.91 208.556 299.397 205.902 299.379 203.228C299.4 200.809 298.914 198.412 297.954 196.191ZM290.601 212.25C290.175 213.796 289.505 215.265 288.616 216.601C287.823 217.801 286.784 218.819 285.568 219.59C284.403 220.327 283.05 220.713 281.67 220.702C279.794 220.738 277.949 220.213 276.373 219.196C274.772 218.124 273.428 216.712 272.439 215.061C271.303 213.162 270.479 211.094 269.996 208.936C269.426 206.466 269.149 203.938 269.168 201.403C269.157 199.636 269.42 197.878 269.947 196.191C270.414 194.667 271.114 193.224 272.022 191.914C272.814 190.761 273.832 189.78 275.015 189.032C276.059 188.354 277.276 187.987 278.522 187.975C280.862 187.975 282.847 188.47 284.476 189.461C286.119 190.463 287.484 191.86 288.445 193.525C289.519 195.402 290.262 197.448 290.643 199.576C291.104 202.031 291.33 204.524 291.315 207.022C291.323 208.789 291.083 210.549 290.601 212.25ZM219.186 185.243L207.628 199.964L197.838 185.243H189.243L202.983 205.876L189.243 223.376H193.216L204.813 208.626L204.826 208.642L223.097 185.243H219.186ZM209.225 215.263L214.6 223.376H223.113L213.827 209.338L209.225 215.263ZM179.553 212.154C178.693 213.253 177.674 214.219 176.528 215.019C175.309 215.873 173.976 216.553 172.569 217.04C171.107 217.556 169.568 217.816 168.018 217.811C166.204 217.83 164.416 217.386 162.824 216.522C161.232 215.618 159.842 214.401 158.738 212.944C157.649 211.567 156.673 209.962 155.719 206.552C155.072 204.075 154.862 201.505 155.099 198.957C155.225 197.452 155.7 195.044 156.731 193.155C158.024 190.783 159.42 189.41 160.71 188.681C161.912 188.001 162.762 187.946 163.861 187.946C165.131 187.938 166.388 188.193 167.552 188.697C169.848 189.684 171.658 191.539 172.585 193.855C173.083 195.083 173.333 196.398 173.322 197.723H162.381V200.679H182.456C182.46 198.671 182.052 196.685 181.257 194.841C180.468 192.996 179.324 191.324 177.889 189.919C176.398 188.466 174.643 187.311 172.717 186.515C170.629 185.652 168.387 185.22 166.127 185.245C163.577 185.208 161.05 185.734 158.728 186.786C156.553 187.785 154.617 189.237 153.05 191.044C151.425 192.943 150.183 195.138 149.394 197.507C148.512 200.131 148.075 202.884 148.101 205.652C148.088 208.024 148.57 210.372 149.517 212.547C150.425 214.655 151.732 216.569 153.366 218.185C155.013 219.8 156.952 221.089 159.081 221.982C161.296 222.913 163.678 223.382 166.082 223.362C167.997 223.356 169.893 222.992 171.673 222.288C173.511 221.573 175.231 220.589 176.777 219.368C178.346 218.135 179.727 216.682 180.879 215.055C182.031 213.45 182.893 211.656 183.426 209.756H180.917C180.561 210.607 180.103 211.412 179.553 212.154ZM115.839 197.531C117.266 198.205 118.559 199.129 119.658 200.259C120.719 201.375 121.548 202.689 122.099 204.126C122.685 205.672 122.977 207.315 122.959 208.968C122.976 210.908 122.544 212.825 121.697 214.57C120.829 216.335 119.581 217.886 118.044 219.114C116.342 220.47 114.406 221.503 112.333 222.164C109.913 222.936 107.384 223.312 104.844 223.279H80.6199V194.212H100.454C102.037 194.239 103.611 193.983 105.103 193.456C106.383 193 107.556 192.287 108.55 191.362C109.489 190.47 110.217 189.38 110.682 188.172C111.172 186.894 111.418 185.535 111.406 184.166C111.424 182.719 111.131 181.285 110.546 179.961C109.945 178.667 109.021 177.549 107.863 176.715C106.474 175.73 104.906 175.025 103.247 174.641C101.436 174.212 99.583 173.98 97.7215 173.951V173.924H80.6199V170.416H101.517C104.084 170.391 106.644 170.706 109.128 171.352C111.248 171.892 113.261 172.79 115.079 174.007C116.656 175.068 117.973 176.472 118.931 178.113C119.847 179.714 120.32 181.529 120.302 183.373C120.32 184.688 120.175 186 119.871 187.279C119.582 188.428 119.064 189.506 118.346 190.449C117.521 191.509 116.537 192.437 115.431 193.2C113.972 194.208 112.434 195.095 110.832 195.855V196.015C112.567 196.27 114.254 196.781 115.839 197.531ZM110.061 216.217C111.217 215.391 112.146 214.287 112.761 213.007C113.354 211.721 113.652 210.318 113.634 208.902C113.649 207.314 113.383 205.735 112.851 204.239C112.327 202.799 111.445 201.516 110.287 200.512C108.928 199.367 107.344 198.518 105.638 198.019C103.719 197.409 101.364 197.103 98.575 197.103H88.3737V219.038H98.8473C101.068 219.074 103.284 218.826 105.442 218.301C107.099 217.901 108.666 217.194 110.061 216.217ZM234.552 223.203C236.585 223.203 238.233 221.561 238.233 219.535C238.233 217.509 236.585 215.867 234.552 215.867C232.518 215.867 230.87 217.509 230.87 219.535C230.87 221.561 232.518 223.203 234.552 223.203ZM245.99 179.853L253.35 177.703V170.415L245.99 172.568V179.853ZM245.99 223.214H253.35V185.59L245.99 187.682V223.214Z" fill="white"/>
<path fill-rule="evenodd" clip-rule="evenodd" d="M190.329 93.9555H169.275C160.78 93.9555 153.897 86.614 153.889 77.5555H174.943C183.446 77.5555 190.329 84.8971 190.329 93.9555ZM169.283 95.7778H190.337C190.337 104.836 183.45 112.178 174.951 112.178H153.897C153.897 103.119 160.78 95.7778 169.283 95.7778ZM226.778 95.7778H205.723C197.221 95.7778 190.337 103.119 190.337 112.178H211.392C219.895 112.178 226.778 104.836 226.778 95.7778ZM226.77 93.9555H205.715C197.225 93.9555 190.337 86.614 190.329 77.5555H211.384C219.887 77.5555 226.77 84.8971 226.77 93.9555ZM190.337 134.044H169.283C160.78 134.044 153.897 141.386 153.897 150.444H174.951C183.45 150.444 190.337 143.103 190.337 134.044ZM190.329 132.222H169.275C160.78 132.222 153.897 124.881 153.889 115.822H174.943C183.446 115.822 190.329 123.164 190.329 132.222ZM226.778 134.044H205.723C197.221 134.044 190.337 141.386 190.337 150.444H211.392C219.895 150.444 226.778 143.103 226.778 134.044ZM226.77 132.222H205.715C197.225 132.222 190.337 124.881 190.329 115.822H211.384C219.887 115.822 226.77 123.164 226.77 132.222Z" fill="white"/>
<path d="M492.38 213.068V212.973C492.38 207.857 489.667 205.303 485.253 203.615C487.965 202.097 490.257 199.705 490.257 195.409V195.301C490.257 189.317 485.47 185.455 477.685 185.455H460V223.524H478.119C486.718 223.511 492.38 220.028 492.38 213.068ZM481.93 196.805C481.93 199.638 479.591 200.83 475.888 200.83H468.137V192.78H476.41C479.943 192.78 481.903 194.196 481.903 196.697L481.93 196.805ZM484.053 212.031C484.053 214.864 481.822 216.165 478.119 216.165H468.137V207.79H477.848C482.147 207.79 484.053 209.368 484.053 211.923V212.031ZM509.957 223.511V185.441H501.575V223.511H509.957ZM555.004 223.511V185.441H546.731V208.908L528.883 185.468H521.152V223.538H529.425V199.306L547.877 223.511H555.004ZM601.427 223.511L585.098 185.191H577.375L561.039 223.511H569.583L573.069 214.972H589.181L592.666 223.511H601.427ZM586.19 207.552H576.066L581.125 195.213L586.19 207.552ZM641.375 223.49V185.441H633.102V208.908L615.288 185.441H607.558V223.511H615.831V199.306L634.275 223.511L641.375 223.49ZM684.639 217.344L679.309 211.923C676.312 214.634 673.647 216.382 669.293 216.382C662.763 216.382 658.247 210.961 658.247 204.422V204.313C658.247 197.788 662.871 192.455 669.293 192.455C673.104 192.455 676.074 194.088 679.038 196.751L684.368 190.605C680.828 187.129 676.529 184.737 669.347 184.737C657.65 184.737 649.485 193.6 649.485 204.422V204.53C649.485 215.46 657.813 224.107 669.022 224.107C676.366 224.161 680.719 221.552 684.639 217.364V217.344ZM720.396 223.511V216.057H699.713V208.061H717.683V200.607H699.713V192.895H720.125V185.441H691.393V223.511H720.396Z" fill="white"/>
<path d="M555.941 123.941L565.883 114L555.941 104.066L546 114L555.941 123.941Z" fill="white"/>
<path d="M607.073 106.905L590.031 89.8756L572.99 106.905L563.042 96.9706L590.031 70L617.021 96.9706L607.073 106.905Z" fill="white"/>
<path d="M614.18 114L624.121 104.066L634.063 114L624.121 123.941L614.18 114Z" fill="white"/>
<path d="M572.99 121.102L590.031 138.131L607.073 121.102L617.021 131.036L590.031 158L563.042 131.036L572.99 121.102Z" fill="white"/>
<path d="M599.973 114L590.031 123.941L580.09 114L590.031 104.066L599.973 114Z" fill="white"/>
<rect x="380" y="100" width="4" height="100" fill="white"/>
</svg>
