<svg width="780" height="300" viewBox="0 0 780 300" fill="none" xmlns="http://www.w3.org/2000/svg">
<path fill-rule="evenodd" clip-rule="evenodd" d="M132.656 223.278H140.016V164.612L132.656 166.701V223.278ZM297.954 196.191C297.021 194.042 295.666 192.101 293.969 190.482C292.218 188.825 290.162 187.52 287.915 186.64C285.484 185.69 282.892 185.216 280.281 185.244C277.639 185.214 275.021 185.732 272.591 186.766C270.312 187.739 268.251 189.157 266.531 190.937C264.813 192.732 263.459 194.841 262.542 197.148C261.577 199.569 261.09 202.153 261.107 204.759C261.089 207.201 261.559 209.623 262.49 211.882C263.421 214.142 264.795 216.193 266.531 217.917C268.272 219.627 270.33 220.982 272.591 221.907C275.032 222.911 277.65 223.415 280.29 223.387C282.917 223.413 285.519 222.869 287.915 221.794C290.197 220.763 292.251 219.29 293.959 217.462C295.683 215.596 297.036 213.421 297.944 211.051C298.91 208.556 299.397 205.902 299.379 203.228C299.4 200.809 298.914 198.412 297.954 196.191ZM290.601 212.25C290.175 213.796 289.505 215.265 288.616 216.601C287.823 217.801 286.784 218.819 285.568 219.59C284.403 220.327 283.05 220.713 281.67 220.702C279.794 220.738 277.949 220.213 276.373 219.196C274.772 218.124 273.428 216.712 272.439 215.061C271.303 213.162 270.479 211.094 269.996 208.936C269.426 206.466 269.149 203.938 269.168 201.403C269.157 199.636 269.42 197.878 269.947 196.191C270.414 194.667 271.114 193.224 272.022 191.914C272.814 190.761 273.832 189.78 275.015 189.032C276.059 188.354 277.276 187.987 278.522 187.975C280.862 187.975 282.847 188.47 284.476 189.461C286.119 190.463 287.484 191.86 288.445 193.525C289.519 195.402 290.262 197.448 290.643 199.576C291.104 202.031 291.33 204.524 291.315 207.022C291.323 208.789 291.083 210.549 290.601 212.25ZM219.186 185.243L207.628 199.964L197.838 185.243H189.243L202.983 205.876L189.243 223.376H193.216L204.813 208.626L204.826 208.642L223.097 185.243H219.186ZM209.225 215.263L214.6 223.376H223.113L213.827 209.338L209.225 215.263ZM179.553 212.154C178.693 213.253 177.674 214.219 176.528 215.019C175.309 215.873 173.976 216.553 172.569 217.04C171.107 217.556 169.568 217.816 168.018 217.811C166.204 217.83 164.416 217.386 162.824 216.522C161.232 215.618 159.842 214.401 158.738 212.944C157.649 211.567 156.673 209.962 155.719 206.552C155.072 204.075 154.862 201.505 155.099 198.957C155.225 197.452 155.7 195.044 156.731 193.155C158.024 190.783 159.42 189.41 160.71 188.681C161.912 188.001 162.762 187.946 163.861 187.946C165.131 187.938 166.388 188.193 167.552 188.697C169.848 189.684 171.658 191.539 172.585 193.855C173.083 195.083 173.333 196.398 173.322 197.723H162.381V200.679H182.456C182.46 198.671 182.052 196.685 181.257 194.841C180.468 192.996 179.324 191.324 177.889 189.919C176.398 188.466 174.643 187.311 172.717 186.515C170.629 185.652 168.387 185.22 166.127 185.245C163.577 185.208 161.05 185.734 158.728 186.786C156.553 187.785 154.617 189.237 153.05 191.044C151.425 192.943 150.183 195.138 149.394 197.507C148.512 200.131 148.075 202.884 148.101 205.652C148.088 208.024 148.57 210.372 149.517 212.547C150.425 214.655 151.732 216.569 153.366 218.185C155.013 219.8 156.952 221.089 159.081 221.982C161.296 222.913 163.678 223.382 166.082 223.362C167.997 223.356 169.893 222.992 171.673 222.288C173.511 221.573 175.231 220.589 176.777 219.368C178.346 218.135 179.727 216.682 180.879 215.055C182.031 213.45 182.893 211.656 183.426 209.756H180.917C180.561 210.607 180.103 211.412 179.553 212.154ZM115.839 197.531C117.266 198.205 118.559 199.129 119.658 200.259C120.719 201.375 121.548 202.689 122.099 204.126C122.685 205.672 122.977 207.315 122.959 208.968C122.976 210.908 122.544 212.825 121.697 214.57C120.829 216.335 119.581 217.886 118.044 219.114C116.342 220.47 114.406 221.503 112.333 222.164C109.913 222.936 107.384 223.312 104.844 223.279H80.6199V194.212H100.454C102.037 194.239 103.611 193.983 105.103 193.456C106.383 193 107.556 192.287 108.55 191.362C109.489 190.47 110.217 189.38 110.682 188.172C111.172 186.894 111.418 185.535 111.406 184.166C111.424 182.719 111.131 181.285 110.546 179.961C109.945 178.667 109.021 177.549 107.863 176.715C106.474 175.73 104.906 175.025 103.247 174.641C101.436 174.212 99.583 173.98 97.7215 173.951V173.924H80.6199V170.416H101.517C104.084 170.391 106.644 170.706 109.128 171.352C111.248 171.892 113.261 172.79 115.079 174.007C116.656 175.068 117.973 176.472 118.931 178.113C119.847 179.714 120.32 181.529 120.302 183.373C120.32 184.688 120.175 186 119.871 187.279C119.582 188.428 119.064 189.506 118.346 190.449C117.521 191.509 116.537 192.437 115.431 193.2C113.972 194.208 112.434 195.095 110.832 195.855V196.015C112.567 196.27 114.254 196.781 115.839 197.531ZM110.061 216.217C111.217 215.391 112.146 214.287 112.761 213.007C113.354 211.721 113.652 210.318 113.634 208.902C113.649 207.314 113.383 205.735 112.851 204.239C112.327 202.799 111.445 201.516 110.287 200.512C108.928 199.367 107.344 198.518 105.638 198.019C103.719 197.409 101.364 197.103 98.575 197.103H88.3737V219.038H98.8473C101.068 219.074 103.284 218.826 105.442 218.301C107.099 217.901 108.666 217.194 110.061 216.217ZM234.552 223.203C236.585 223.203 238.233 221.561 238.233 219.535C238.233 217.509 236.585 215.867 234.552 215.867C232.518 215.867 230.87 217.509 230.87 219.535C230.87 221.561 232.518 223.203 234.552 223.203ZM245.99 179.853L253.35 177.703V170.415L245.99 172.568V179.853ZM245.99 223.214H253.35V185.59L245.99 187.682V223.214Z" fill="#0D0F12"/>
<path fill-rule="evenodd" clip-rule="evenodd" d="M189.996 93.9557H168.942C160.447 93.9557 153.564 86.6141 153.556 77.5557H174.61C183.113 77.5557 189.996 84.8972 189.996 93.9557ZM168.95 95.7779H190.004C190.004 104.836 183.117 112.178 174.618 112.178H153.564C153.564 103.119 160.447 95.7779 168.95 95.7779ZM226.444 95.7779H205.39C196.887 95.7779 190.004 103.119 190.004 112.178H211.058C219.561 112.178 226.444 104.836 226.444 95.7779ZM226.436 93.9557H205.382C196.891 93.9557 190.004 86.6141 189.996 77.5557H211.05C219.553 77.5557 226.436 84.8972 226.436 93.9557ZM190.004 134.045H168.95C160.447 134.045 153.564 141.386 153.564 150.445H174.618C183.117 150.445 190.004 143.103 190.004 134.045ZM189.996 132.222H168.942C160.447 132.222 153.564 124.881 153.556 115.822H174.61C183.113 115.822 189.996 123.164 189.996 132.222ZM226.444 134.045H205.39C196.887 134.045 190.004 141.386 190.004 150.445H211.058C219.561 150.445 226.444 143.103 226.444 134.045ZM226.436 132.222H205.382C196.891 132.222 190.004 124.881 189.996 115.822H211.05C219.553 115.822 226.436 123.164 226.436 132.222Z" fill="url(#paint0_linear_121_1218)"/>
<path d="M492.38 210.332V210.237C492.38 205.121 489.667 202.566 485.253 200.879C487.965 199.361 490.257 196.969 490.257 192.673V192.564C490.257 186.581 485.47 182.718 477.685 182.718H460V220.788H478.119C486.718 220.774 492.38 217.291 492.38 210.332ZM481.93 194.069C481.93 196.901 479.591 198.094 475.888 198.094H468.137V190.043H476.41C479.943 190.043 481.903 191.46 481.903 193.96L481.93 194.069ZM484.053 209.295C484.053 212.127 481.822 213.428 478.119 213.428H468.137V205.053H477.848C482.147 205.053 484.053 206.632 484.053 209.186V209.295ZM509.957 220.774V182.705H501.575V220.774H509.957ZM555.004 220.774V182.705H546.731V206.171L528.883 182.732H521.152V220.801H529.425V196.569L547.877 220.774H555.004ZM601.427 220.774L585.098 182.454H577.375L561.039 220.774H569.583L573.069 212.236H589.181L592.666 220.774H601.427ZM586.19 204.816H576.066L581.125 192.476L586.19 204.816ZM641.375 220.754V182.705H633.102V206.171L615.288 182.705H607.558V220.774H615.831V196.569L634.275 220.774L641.375 220.754ZM684.639 214.608L679.309 209.186C676.312 211.897 673.647 213.645 669.293 213.645C662.763 213.645 658.247 208.224 658.247 201.685V201.577C658.247 195.051 662.871 189.718 669.293 189.718C673.104 189.718 676.074 191.351 679.038 194.014L684.368 187.868C680.828 184.392 676.529 182 669.347 182C657.65 182 649.485 190.863 649.485 201.685V201.794C649.485 212.724 657.813 221.37 669.022 221.37C676.366 221.424 680.719 218.816 684.639 214.628V214.608ZM720.396 220.774V213.32H699.713V205.324H717.683V197.87H699.713V190.159H720.125V182.705H691.393V220.774H720.396Z" fill="#EBB42B"/>
<path d="M555.941 123.941L565.883 114L555.941 104.066L546 114L555.941 123.941Z" fill="#EBB42B"/>
<path d="M607.073 106.905L590.031 89.8756L572.99 106.905L563.042 96.9706L590.031 70L617.021 96.9706L607.073 106.905Z" fill="#EBB42B"/>
<path d="M614.18 114L624.121 104.066L634.063 114L624.121 123.941L614.18 114Z" fill="#EBB42B"/>
<path d="M572.99 121.102L590.031 138.131L607.073 121.102L617.021 131.036L590.031 158L563.042 131.036L572.99 121.102Z" fill="#EBB42B"/>
<path d="M599.973 114L590.031 123.941L580.09 114L590.031 104.066L599.973 114Z" fill="#EBB42B"/>
<path d="M380 100H384V200H380V100Z" fill="#DBDDE1"/>
<defs>
<linearGradient id="paint0_linear_121_1218" x1="153.556" y1="73.0001" x2="226.444" y2="150.445" gradientUnits="userSpaceOnUse">
<stop stop-color="#F2E6CF"/>
<stop offset="1" stop-color="#B5884A"/>
</linearGradient>
</defs>
</svg>
