<svg width="500" height="150" viewBox="0 0 500 150" fill="none" xmlns="http://www.w3.org/2000/svg">
<path fill-rule="evenodd" clip-rule="evenodd" d="M72.9954 56.45H49.3092C39.7527 56.45 32.0091 48.1908 32 38H55.6863C65.2519 38 72.9954 46.2592 72.9954 56.45ZM49.3183 58.5H73.0046C73.0046 68.6908 65.2564 76.95 55.6954 76.95H32.0091C32.0091 66.7592 39.7527 58.5 49.3183 58.5ZM114 58.5H90.3137C80.7481 58.5 73.0045 66.7592 73.0045 76.95H96.6908C106.256 76.95 114 68.6908 114 58.5ZM113.991 56.45H90.3046C80.7527 56.45 73.0046 48.1908 72.9955 38H96.6817C106.247 38 113.991 46.2592 113.991 56.45ZM73.0046 101.55H49.3183C39.7527 101.55 32.0091 109.809 32.0091 120H55.6954C65.2564 120 73.0046 111.741 73.0046 101.55ZM72.9954 99.5H49.3092C39.7527 99.5 32.0091 91.2408 32 81.05H55.6863C65.2519 81.05 72.9954 89.3092 72.9954 99.5ZM114 101.55H90.3137C80.7481 101.55 73.0045 109.809 73.0045 120H96.6908C106.256 120 114 111.741 114 101.55ZM113.991 99.5H90.3046C80.7527 99.5 73.0046 91.2408 72.9955 81.05H96.6817C106.247 81.05 113.991 89.3092 113.991 99.5Z" fill="#0D0F12"/>
<path fill-rule="evenodd" clip-rule="evenodd" d="M213.448 119.832H224.684V30L213.448 33.1984V119.832ZM465.823 78.3549C464.398 75.0639 462.33 72.0917 459.738 69.6135C457.065 67.0754 453.926 65.0776 450.495 63.7301C446.783 62.2747 442.826 61.5491 438.839 61.5928C434.806 61.5467 430.808 62.3401 427.099 63.9226C423.619 65.4122 420.473 67.5839 417.846 70.3095C415.224 73.0588 413.156 76.2882 411.757 79.8208C410.283 83.5279 409.539 87.4849 409.565 91.4743C409.537 95.2145 410.255 98.9229 411.677 102.382C413.099 105.842 415.196 108.983 417.846 111.622C420.504 114.241 423.647 116.317 427.099 117.733C430.825 119.27 434.823 120.041 438.854 119.998C442.865 120.038 446.837 119.206 450.495 117.56C453.979 115.98 457.116 113.726 459.723 110.926C462.355 108.069 464.42 104.738 465.808 101.109C467.282 97.2885 468.026 93.2249 467.999 89.1297C468.03 85.4259 467.289 81.7562 465.823 78.3549ZM454.596 102.945C453.945 105.313 452.923 107.562 451.566 109.608C450.355 111.445 448.769 113.004 446.912 114.184C445.134 115.313 443.067 115.904 440.961 115.887C438.095 115.942 435.279 115.139 432.873 113.582C430.428 111.94 428.377 109.777 426.867 107.249C425.133 104.341 423.873 101.176 423.136 97.8711C422.267 94.0885 421.843 90.2172 421.873 86.3361C421.856 83.6303 422.257 80.938 423.062 78.3549C423.775 76.0215 424.844 73.8121 426.23 71.805C427.439 70.0398 428.994 68.5386 430.8 67.3924C432.394 66.3537 434.252 65.7921 436.154 65.7735C439.727 65.7735 442.757 66.532 445.244 68.0489C447.753 69.5837 449.837 71.7238 451.304 74.2729C452.944 77.1468 454.079 80.2803 454.66 83.5375C455.365 87.2967 455.708 91.1146 455.687 94.9392C455.698 97.6457 455.331 100.34 454.596 102.945ZM345.561 61.5909L327.914 84.1328L312.966 61.5909H299.845L320.823 93.1851L299.845 119.982H305.91L323.616 97.3953L323.636 97.42L351.532 61.5909H345.561ZM330.352 107.558L338.559 119.982H351.557L337.379 98.4861L330.352 107.558ZM285.05 102.798C283.737 104.482 282.18 105.961 280.431 107.186C278.57 108.493 276.535 109.535 274.386 110.281C272.155 111.07 269.804 111.469 267.438 111.46C264.669 111.49 261.939 110.81 259.508 109.486C257.078 108.103 254.955 106.239 253.27 104.007C251.607 101.9 250.117 99.4416 248.661 94.2195C247.672 90.4276 247.352 86.4926 247.713 82.5907C247.906 80.2857 248.631 76.5987 250.205 73.7063C252.179 70.0735 254.311 67.9709 256.28 66.8554C258.116 65.8139 259.414 65.73 261.092 65.73C263.03 65.7168 264.949 66.1085 266.727 66.8801C270.233 68.3915 272.996 71.2315 274.411 74.7774C275.171 76.6585 275.554 78.6712 275.536 80.7003H258.831V85.2265H289.482C289.489 82.1531 288.865 79.1109 287.651 76.2877C286.447 73.4628 284.7 70.902 282.509 68.7507C280.233 66.5265 277.553 64.7575 274.613 63.5385C271.425 62.217 268.002 61.5555 264.551 61.5938C260.658 61.5365 256.8 62.3423 253.255 63.9531C249.933 65.4837 246.977 67.7068 244.585 70.4733C242.104 73.3815 240.209 76.7419 239.003 80.3696C237.657 84.3887 236.99 88.604 237.029 92.8424C237.009 96.4736 237.745 100.069 239.191 103.4C240.578 106.628 242.573 109.559 245.068 112.033C247.582 114.506 250.543 116.479 253.793 117.847C257.175 119.273 260.812 119.992 264.482 119.96C267.405 119.952 270.302 119.394 273.019 118.316C275.824 117.221 278.451 115.714 280.811 113.844C283.207 111.957 285.316 109.732 287.074 107.24C288.832 104.783 290.148 102.036 290.962 99.1257H287.133C286.589 100.429 285.89 101.662 285.05 102.798ZM187.773 80.4072C189.95 81.4381 191.925 82.8531 193.603 84.5847C195.223 86.2924 196.489 88.3046 197.33 90.5052C198.225 92.873 198.67 95.3879 198.643 97.9199C198.668 100.89 198.009 103.826 196.716 106.498C195.39 109.2 193.486 111.576 191.139 113.456C188.54 115.531 185.585 117.114 182.419 118.126C178.724 119.308 174.864 119.885 170.986 119.834H134V75.3252H164.283C166.699 75.3659 169.103 74.9735 171.381 74.1665C173.335 73.4685 175.126 72.3772 176.644 70.9597C178.077 69.594 179.189 67.9257 179.899 66.0759C180.647 64.1187 181.022 62.0379 181.004 59.9419C181.032 57.7261 180.584 55.5302 179.691 53.503C178.774 51.5213 177.363 49.8097 175.594 48.5327C173.474 47.0234 171.08 45.9444 168.547 45.3565C165.781 44.6993 162.953 44.3449 160.111 44.2994V44.2588H134V38.8871H165.906C169.825 38.8489 173.733 39.3308 177.526 40.3202C180.763 41.1476 183.836 42.5225 186.612 44.3858C189.019 46.0105 191.03 48.1595 192.493 50.6723C193.891 53.1238 194.613 55.9037 194.587 58.7273C194.613 60.7407 194.392 62.7498 193.928 64.7088C193.487 66.4677 192.696 68.1188 191.6 69.5622C190.34 71.1858 188.838 72.6066 187.149 73.7752C184.921 75.3177 182.573 76.6773 180.127 77.8408V78.0848C182.776 78.4758 185.353 79.2584 187.773 80.4072ZM178.951 109.019C180.716 107.755 182.134 106.065 183.073 104.105C183.977 102.135 184.433 99.987 184.406 97.8183C184.428 95.3863 184.023 92.9694 183.21 90.678C182.411 88.4727 181.064 86.5083 179.295 84.9709C177.22 83.2175 174.803 81.9176 172.197 81.1543C169.267 80.2192 165.672 79.7517 161.414 79.7517H145.838V113.339H161.829C165.22 113.394 168.604 113.015 171.898 112.211C174.428 111.599 176.82 110.516 178.951 109.019ZM369.021 119.718C372.125 119.718 374.642 117.203 374.642 114.101C374.642 110.999 372.125 108.484 369.021 108.484C365.917 108.484 363.4 110.999 363.4 114.101C363.4 117.203 365.917 119.718 369.021 119.718ZM386.485 53.337L397.721 50.0448V38.8849L386.485 42.1821V53.337ZM386.485 119.734H397.721V62.1227L386.485 65.3261V119.734Z" fill="#0D0F12"/>
</svg>
